<svg version="1" xmlns="http://www.w3.org/2000/svg" width="1362.667" height="1362.667" viewBox="0 0 1022.000000 1022.000000"><path d="M306.9 1.4c-.2.2-3.5.7-7.4 1-3.8.4-9.2 1.1-12 1.6-2.7.5-6.1 1.2-7.5 1.4-4 .7-21.3 5.4-24.5 6.6-1.7.6-3.2 1.2-3.5 1.2-.3 0-1.5.4-2.8.9-1.3.5-2.7.9-3.1.9-3.1 0-55.2 23.8-57.1 26.1-.3.3-3.4 2.1-7 4.1-3.6 1.9-7.9 4.4-9.6 5.4-1.7 1-6 3.6-9.5 5.7s-9.2 5.6-12.6 7.7c-5.5 3.5-9.2 4.8-15.8 5.6-1.1.1-2 .3-2 .4 0 .3-9.4 2.2-11.2 2.3-.7 0-1.3.4-1.3.9s-.4.7-.9.3c-1-.6-15.7 2.6-23.6 5.2-16.3 5.2-30.3 20.8-34.9 38.8-2.3 9-2.3 184.7 0 194.5 1.6 6.5 7 18.1 10.2 21.6 1 1.1 2.8 3.2 4 4.9 3.8 4.9 15.3 17.4 20.7 22.6 4.9 4.6 6.8 6.3 13.6 12.4 16.2 14.5 42.2 28.6 66.4 36.1 2.1.7 3 1.6 3.1 3.2.1 1.2.2 2.3.4 2.4.5.7 3.7 18.1 4.5 24.8.8 6.6 1.4 16.8 1.9 31 .5 14.1 1 17.8 3.9 27 2.3 7.4 7.5 17.8 11.7 23.3 5.5 7.2 20.2 20.7 22.6 20.7.4 0 1.5.6 2.3 1.3 1.7 1.4 12.8 6.5 15.9 7.3 16.5 4.2 32.5 4.9 45.1 1.8 6.9-1.6 9-2.3 11.9-3.8 1.7-.9 3.2-1.4 3.2-1.2 0 .9 12.3-6.6 16.7-10.1 4.4-3.5 8.4-7.4 11.8-11.4 2.7-3.2 10.7-15.9 10-15.9-.3 0 .1-1 .9-2.3 2.1-3.2 5.8-15.6 6.1-20.3.1-2.3.5-4.6.7-5 .3-.5.5-16.3.6-35.1 0-18.8.2-34.6.5-35 .6-1 18.9-.9 20.5.1.6.3 1.3.3 1.6-.2.5-.9 20.8-.8 22.4.2.6.3 1.3.3 1.6-.2.5-.9 20.8-.8 22.4.2.6.3 1.3.3 1.5-.1.6-1 68.9-.9 70.4 0 .7.4 1.4.4 1.7-.1.5-.9 20.8-.8 22.4.2.6.3 1.3.3 1.5-.1.6-1 68.9-.9 70.4 0 .7.4 1.4.4 1.7-.1.4-.7 19.3-.9 22.1-.2.6.1 1.2.1 1.5 0 .3-.1 7.7-.3 16.5-.5 8.8-.1 16.9-.5 18-.8 3.6-.9 11-2.1 11.8-1.9.4.1.7-.3.7-1 0-.6.3-.9.6-.5.8.8 11.9-4 18.2-8 2.8-1.8 5.5-3.3 5.8-3.2.6 0 13.3-12.8 15.9-16.2 6.7-8.7 11.3-18.8 15.2-33.9 1.8-6.9 1.5-25.9-.5-35.5-2-9.2-8.7-25.5-10.5-25.5-.6 0-.8-.3-.4-.6.6-.7-3.9-7-9.5-13.2-8.5-9.4-23.9-18.4-38.4-22.4-7.7-2.1-9.7-2.2-71.3-2.5-34.9-.1-63.5-.4-63.6-.5-.2-.2-.5-2.3-.8-4.8-.3-2.5-.8-5.6-1.1-7-.3-1.4-.8-3.5-1-4.7-.3-1.2-.9-3-1.5-4.1-.6-1.1-.8-2.1-.6-2.4.7-.6-8.9-19.3-11.8-23-1.2-1.5-4.2-5-6.7-7.7-4.2-4.6-5.2-7.1-3.9-9.6 1.1-2 0-21.1-1.6-28.5-.3-1.4-.7-3.6-1-5-1.3-6.6-7.4-20.5-12.7-28.2-5-7.6-6.2-9-13.6-16.4-4.3-4.3-6.4-7.2-6.6-9.1-.2-1.5-.6-3.5-.9-4.3-.4-.8-.8-2.6-1.1-4-2.9-16.1-16.5-39.6-30-52-5.9-5.4-17.7-14-19.3-14-.7 0-1.3-.4-1.3-.8 0-.7-12.3-7-15-7.7-.3-.1-1.4-.5-2.5-.9-7-2.7-19.7-6.2-25-7.1-2.2-.3-5.3-.8-7-1.1-1.6-.2-4.8-.7-7-1-4.6-.6-40.1-1.5-40.6-1zM748 469.1c-2.5.4-4.8.5-5.2.2-.5-.2-1.4-.1-2 .4-.7.4-2.2.8-3.3.9-5 .6-18.3 4.8-19.5 6.3-.3.3-2.3 1.5-4.5 2.6-8.8 4.3-19.6 14.4-26.9 25-4.2 6.1-10 19.5-11.1 25.3-.2 1.5-.8 4.8-1.3 7.3s-.9 19.6-1 38c0 18.4-.1 34.1-.1 34.9-.1 1.3-16.9 1.5-145 1.5-134.7 0-145.6.1-154.3 1.7-5.1 1-10.5 2.5-12 3.3-1.4.8-3.3 1.5-4.2 1.5-.9 0-1.6.5-1.6 1.2 0 .6-.3.8-.7.5-.6-.6-10.5 4.5-13 6.8-.6.5-2.6 2.1-4.4 3.5-4.4 3.4-10.7 10.1-14.6 15.8-1.8 2.6-3.6 5.2-4 5.7-.4.6-.9 1.7-1.1 2.5-.2.8-.9 1.8-1.5 2.2-.7.4-.9.8-.4.8.4 0-.1 1.7-1.2 3.9-1.1 2.1-2.2 4.9-2.5 6.2-.2 1.3-.9 3.7-1.6 5.4-.6 1.6-1.1 3.1-1.1 3.2.1.2.1.4 0 .5-.6 2.5-1.2 13.2-1 19.8.3 13.2.5 16 1.5 16 .5 0 .7.3.3.6-.8.9 2 10 5.4 17.4 6.1 12.9 15.7 24.7 25.9 31.7 5.7 3.9 13.6 8.3 15.8 8.9.9.2 4.4 1.3 7.6 2.4 3.2 1.2 7.3 2.3 9.1 2.4 1.8.2 3.6.5 4.1.8.5.3 3.3.5 6.2.4 2.8-.1 5.2.1 5.2.4 0 .3 25.6.4 57 .2l57-.2.5 2.3c.4 1.3.5 2.7.4 3.3-.2.5.3 3.2 1 6 .7 2.9 1.3 5.9 1.5 6.8.1.8.5 1.9.9 2.2.4.4.7 1.4.7 2.2 0 1.5 7.8 18.4 8.9 19.2.4.3 1.8 2.1 3.1 4 3.3 4.7 5 6.8 7.9 9.6 2.4 2.2 2.5 2.9 2.7 16.1.2 15.3.4 17.1 3.4 28 3 11.1 11.2 27.2 17 33.3.8.9 2.7 3 4.1 4.6 1.4 1.6 4.4 4.6 6.7 6.7 2.4 2.1 4.2 4.7 4.3 6 .1 2.4.1 2.5 2.5 11.7.9 3.6 2 6.9 2.5 7.5.5.5.9 1.5.9 2.3 0 1.2 2.3 6.1 8.7 18.4.8 1.6 1.9 2.8 2.4 2.8s.9.6.9 1.2c0 3.1 17.8 21.4 25.7 26.5 1.5.9 3 2 3.3 2.3 1.3 1.4 12.8 7.2 21.8 11.1 5.5 2.4 20.1 6.5 26.7 7.5 1.7.3 4.1.7 5.5.9 9.6 1.6 16.7 2 33 2 17 0 24.5-.5 34-2.2 1.9-.4 4.4-.8 5.5-.9 1.1-.1 2-.3 2-.4 0-.1 1.1-.3 2.4-.6 3.8-.7 18.4-4.4 20.1-5.1.8-.3 1.8-.5 2.3-.5.4.1.7-.3.7-.9 0-.5.4-.8.8-.5 1.3.8 15.6-4.5 33.4-12.2 6.7-2.9 26.2-12.5 26.8-13.2.3-.3 3.4-2 7-3.8 8.8-4.6 12.4-6.6 13-7.3.3-.3 1.6-1.2 3-1.9s7.9-4.7 14.5-8.8c11.2-7 14.9-8.5 25.6-10.6 1.3-.2 4.4-.9 6.9-1.5 2.5-.5 5.6-1.2 7-1.5 11.6-2.2 18.7-4 19.8-4.8.6-.6 1.2-.8 1.2-.4s1.5-.1 3.3-1.1c1.7-.9 3.5-1.7 3.9-1.8.4 0 1.7-.8 2.8-1.7 1.1-1 2.4-1.8 2.8-1.8 2.9 0 17.5-18 18.2-22.5.1-.6.6-1.5 1.1-2.1.4-.6 1.5-4 2.4-7.6 2.2-9.6 2.2-186.1 0-195.6-1.5-6.1-6.2-16.6-8.7-19.4-.7-.7-2.9-3.4-4.8-5.8-5.8-7.6-24.5-27.1-33.1-34.6-5.1-4.4-20.3-15.5-25.6-18.6-3-1.8-6.9-4.1-8.7-5.2-1.7-1-3.2-1.8-3.3-1.8-.2.1-3.6-1.4-7.7-3.3s-11.3-4.6-15.9-6l-8.4-2.5-1.3-5.8c-.7-3.1-1.4-6.7-1.5-7.9-.2-1.1-.6-2.9-.9-4-.5-1.7-1.3-7.6-2.2-16.3-.2-1.9-.6-7.7-.9-12.9-.3-5.2-.8-9.8-1.1-10.2-.2-.4 0-1 .6-1.4.6-.4.8-1 .5-1.5-.3-.5-.7-4.6-1-9.2-.5-9.2-.4-9-2.8-16.8-.9-3-1.6-5.8-1.7-6.2 0-.4-1.7-3.8-3.6-7.5-8.6-16.3-20.2-27.7-36.3-35.9-5.6-2.8-16.2-6.5-20.1-7-1.4-.2-4.1-.6-6-.9-5.6-.9-14.1-1.1-19-.4z"/></svg>