<?xml version="1.0" encoding="utf-8"?>
<!-- Generator: Adobe Illustrator 21.1.0, SVG Export Plug-In . SVG Version: 6.00 Build 0)  -->
<svg version="1.1" id="Capa_1" xmlns="http://www.w3.org/2000/svg" xmlns:xlink="http://www.w3.org/1999/xlink" x="0px" y="0px"
	 viewBox="0 0 452 511.1" style="enable-background:new 0 0 452 511.1;" xml:space="preserve">
<style type="text/css">
	.st0{fill:#FFFFFF;}
	.st1{fill:none;stroke:#248BD2;stroke-miterlimit:10;}
	.st2{fill:#248BD2;}
</style>
<path class="st0" d="M433.9,354.1c-16.3-20.4-33.7-31.7-51.7-33.6c-0.5,0-0.9-0.4-1.1-0.8c-2.1-5.4-7.1-20.6-7.1-44.4
	c0-16.6-13-25.2-25.8-25.2c-12.5,0-25.2,8.7-25.2,25.2l0,45.1c0,0.5-0.3,1-0.7,1.2c-0.3,0-0.6-0.1-0.9-0.1H165.8
	c-16.9,0-25.7,12.9-25.7,25.7c0,12.8,8.8,25.7,25.7,25.7h71.9c0.1,0,0.2,0,0.3,0c0.8,0.2,1.3,0.9,1.1,1.7c-2,8.9-2.7,25.5,14,36.7
	c0.5,0.3,0.7,0.9,0.6,1.5c-2.4,8-5.9,28.1,14.4,40.5c0.4,0.2,0.6,0.6,0.6,1c0.2,7.9,3.4,34.2,37.2,39.9c4.9,0.8,9.9,1.3,14.9,1.3
	c23.7,0,48.4-9.6,82.6-32.2c0.1-0.1,0.3-0.2,0.4-0.2l23.5-5.1c5.2-1.1,9-5.8,8.9-11.1v-85.6C436.3,358.7,435.5,356.2,433.9,354.1z"
	/>
<path class="st0" d="M286.5,140.8h-71.1c-0.2,0-0.5,0-0.7-0.1c-0.9-0.2-1.7-0.7-2.1-1.5s-0.7-1.7-0.5-2.6
	c1.8-8.4,2.6-24.1-13.1-34.6c-1.3-0.8-1.8-2.3-1.4-3.7c2.3-7.6,5.6-26.5-13.5-38.2c-1-0.6-1.6-1.6-1.6-2.7
	c-0.2-7.5-3.2-32.5-35.5-37.9c-4.8-0.8-9.7-1.2-14.6-1.2c-23.3,0-47.7,9.5-81.5,31.8c-0.4,0.2-0.8,0.4-1.3,0.5l-23.7,5.1
	c-4.4,0.9-7.6,4.6-7.8,9l0,85.8l0,0.3c0.2,2.1,1.1,4.1,2.5,5.7c15.7,19.6,33.2,31,50.7,32.8c1.2,0.1,2.3,0.9,2.7,2.1
	c2.2,5.4,7.2,20.7,7.2,45.1c0,15.3,11.9,23.2,23.6,23.2c11,0,22.8-7.3,22.8-23.2v-45.2c0-1.4,1.5-2.9,3.3-3.2l0.1,0
	c0.3,0.1,0.6,0.2,1.1,0.2h154.6c15.5,0,23.7-11.9,23.7-23.7S302,140.8,286.5,140.8z"/>
<title>frame</title>
<line class="st1" x1="132.1" y1="0.5" x2="132.1" y2="0.5"/>
<path class="st2" d="M328.1,164.5c0-23.5-17.8-41.4-41.3-41.4h-56.6c-0.8-11.2-5.8-21.7-13.9-29.4c2.2-17.4-3.9-33.4-17.2-44.3
	c-3.1-20.6-17.3-42-49.6-47.4c-5.8-1-11.6-1.5-17.5-1.5c-26.4,0-53.1,10-89,33.3l-21.3,4.5C9.4,40.9,0,52.1,0,64.7v85.7
	c0.2,6.2,2.4,12.1,6.3,16.9c16.3,20.5,34.3,33.1,53.1,37.8c2.6,10.2,3.9,20.7,3.8,31.3c-0.2,11.8,4.9,23,13.8,30.8
	c7.6,6.6,17.3,10.2,27.4,10.1c23.4,0,40.5-17.6,40.5-40.9v-30.5h142C310.4,205.8,328.1,188,328.1,164.5z M131.6,185.1
	c-0.2,0-0.4-0.2-0.6-0.1l-0.6-0.1c-3.3,0.3-6.3,3-6.3,6.3v45.2c0,13.6-9.6,20.2-19.8,20.2c-10.4,0-20.6-6.9-20.6-20.2
	c0-24.1-4.8-39.6-7.4-46.3c-0.9-2.2-2.9-3.7-5.2-3.9c-22.3-2.3-39.4-20.1-48.7-31.8c-1-1.1-1.6-2.5-1.8-4V64.7
	c0.2-3.1,2.4-5.6,5.4-6.2l23.8-5.1c0.8-0.2,1.6-0.5,2.3-0.9c33.7-22.2,57.6-31.3,79.9-31.3c4.7,0,9.5,0.4,14.1,1.2
	c29.5,4.9,32.8,26.6,33,35.1c0.1,2.1,1.2,4.1,3.1,5.2c17,10.4,14.6,26.8,12.2,34.8c-0.8,2.7,0.3,5.6,2.7,7.1
	c13.8,9.3,13.7,23,11.8,31.4c-0.8,3.5,1.4,6.9,4.9,7.7c0.4,0.1,0.9,0.1,1.3,0.2h71.1c27.6,0,27.6,41.4,0,41.4L131.6,185.1
	L131.6,185.1z"/>
<path class="st2" d="M446.1,344.4c-16.3-20.5-34-33.1-52.9-37.8c-2.6-10.2-3.8-20.7-3.7-31.3c0.2-11.8-4.8-23-13.7-30.8
	c-7.7-6.6-17.6-10.2-27.8-10.1c-23.4,0-40.9,17.6-40.9,40.9v30.5H166c-23.5,0-41.3,17.8-41.3,41.4s17.8,41.4,41.3,41.4h56.6
	c0.8,11.2,5.8,21.7,13.9,29.4c-2.2,17.4,3.9,33.4,17.2,44.3c3.1,20.6,17.3,42,49.6,47.4c5.8,1,11.7,1.5,17.5,1.5
	c26.4,0,53.1-10,89-33.3l20.9-4.5c12.4-2.8,21.2-13.7,21.3-26.4v-85.7C452,355.1,449.9,349.2,446.1,344.4z M431.3,446.9
	c0,3-2.1,5.6-5,6.2l-23.5,5.1c-0.8,0.2-1.5,0.5-2.1,0.9c-33.7,22.2-57.5,31.3-79.8,31.3c-4.7,0-9.4-0.4-14.1-1.2
	c-29.5-4.9-32.8-26.6-33-35c-0.1-2.1-1.2-4.1-3.1-5.2c-17-10.4-14.6-26.8-12.2-34.8c0.8-2.7-0.3-5.6-2.7-7.1
	c-13.8-9.3-13.7-23-11.8-31.4c0.8-3.5-1.4-6.9-4.9-7.7c-0.4-0.1-0.9-0.1-1.3-0.2h-71.9c-27.6,0-27.6-41.4,0-41.4h155.4
	c0.2,0,0.4,0.2,0.6,0.1l0.1,0.1c3.3-0.3,5.8-3,5.9-6.3v-45.2c0-13.6,10-20.2,20.2-20.2c10.4,0,20.8,6.9,20.8,20.2
	c0,24.1,4.9,39.6,7.5,46.3c0.9,2.2,2.9,3.7,5.3,4c22.3,2.3,39,20.1,48.3,31.8c0.9,1.1,1.4,2.6,1.4,4L431.3,446.9L431.3,446.9z"/>
</svg>
